<!-- Generated by IcoMoon.io -->
<svg version="1.1" xmlns="http://www.w3.org/2000/svg" width="35" height="32" viewBox="0 0 35 32">
<path fill="#c3b79f" d="M12.558 26.677c-0.27-0.1-0.768 0.042-0.983 0.125-1.99-1.22-1.75-4.223-1.382-5.572l8.168-0.56c1.126-0.457 3.543-1.326 4.207-1.152s-0.768 4.576-1.566 6.755c-0.399 0.021-1.259 0.1-1.505 0.249-0.307 0.187-1.412 0.031-1.75 0.156s-1.597 0.125-1.904 0.125-1.075 0.125-1.443 0.156c-0.368 0.031-1.505-0.156-1.842-0.28z"></path>
<path fill="#a699d1" d="M13.326 25.027c0 0.447-0.357 0.809-0.798 0.809s-0.798-0.362-0.798-0.809c0-0.447 0.357-0.809 0.798-0.809s0.798 0.362 0.798 0.809z"></path>
<path fill="#a699d1" d="M21.125 24.529c0 0.447-0.357 0.809-0.798 0.809s-0.798-0.362-0.798-0.809c0-0.447 0.357-0.809 0.798-0.809s0.798 0.362 0.798 0.809z"></path>
<path fill="#c2b59c" d="M1.72 26.802c0.184-0.176 0.528-0.623 0.43-0.996-0.123-0.467-0.553-2.272-0.43-3.051-0.102-0.322-0.35-1.021-0.522-1.245-0.004-0.006-0.008-0.012-0.012-0.018-0.27-0.402-0.799-1.237-0.848-1.507-0.049-0.275-0.099-0.993 0.107-1.588-0.015-0.498 0.003-1.588 0.2-1.961 0.246-0.467 1.228-1.992 2.241-2.521s1.934-2.023 2.027-2.179c0.092-0.156 1.228-2.335 1.32-2.77s0.676-2.553 0.86-2.864c0.184-0.311 0.645-1.338 1.934-1.338 1.013-0.996 3.685-4.482 7.676-4.482 3.193 0 6.284 2.988 7.431 4.482 0.563-0.052 1.83 0.112 2.395 1.183 0.706 1.338 1.443 2.988 1.597 3.237s1.842 2.397 2.395 2.77c0.553 0.374 1.812 1.183 2.272 1.556s1.228 1.089 1.075 2.023c0.45 1.058 0.909 3.48-0.86 4.7-0.041 0.467-0.025 1.575 0.368 2.272 0.491 0.872 0.89 1.805 0.921 2.241s0 1.65-1.044 2.459c0.036-0.365 0.038-0.752 0.017-1.121-1.090 1.484-3.628 4.582-5.052 5.105 0-0.604-0.151-1.253-0.318-1.774-0.17 0.529-0.671 1.606-1.309 1.681s-1.371-0.488-1.658-0.778c-0.328-0.093-1.013-0.311-1.136-0.436-0.154-0.156-0.614-1.183-0.645-1.307l-0.675 0.249c-0.276-0.342-0.854-1.189-0.952-1.837-0.052-0.34-0.19-0.597-0.338-0.779-0.134-0.164-0.276-0.267-0.368-0.311-0.133-0.322-0.289-1.139 0.154-1.837 0.553-0.872 1.412-2.584 1.412-2.739v-1.93c-0.276 0.156-0.903 0.554-1.198 0.903-0.368 0.436-0.706 1.058-0.921 1.152s-1.535 0.685-2.088 0.623c-0.553-0.062-1.965 0.374-2.088 0.342s-1.32 0.436-2.241 0.436-2.18-0.996-2.18-1.401c-0.602 0.113-1.106-0.030-1.474-0.235 0.051 0.524 0.264 1.685 0.706 2.134 0.498 0.505 0.897 2.579 0.61 3.735-0.031 0.126-0.071 0.241-0.119 0.342 0.123 0.772-0.379 1.629-0.645 1.961 0.003-0.15 0-0.351-0.015-0.56-0.374 0.342-1.232 1.027-1.674 1.027-0.614 1.146-1.627 1.266-2.057 1.183-0.154 0.156-0.921 0.218-1.443 0.654-0.368-0.529-0.184-1.837 0.246-2.303-0.246 0-0.921 0.809-1.197 1.338-0.184-0.031-0.89-0.872-1.013-1.338-0.098-0.374 0.143-0.965 0.276-1.214-0.072 0.031-0.399 0.317-1.136 1.214-0.675-0.467-0.43-1.837-0.43-2.21 0-0.299-0.389-0.374-0.583-0.374z"></path>
<path fill="#96866c" d="M9.709 4.452c-0.187 0.201-0.35 0.375-0.489 0.512-0.052 0.051-0.121 0.079-0.192 0.079-1.017 0-1.426 0.723-1.643 1.107-0.020 0.035-0.038 0.067-0.055 0.095-0.027 0.046-0.089 0.204-0.174 0.462-0.081 0.244-0.173 0.548-0.262 0.858-0.18 0.623-0.347 1.252-0.39 1.458-0.031 0.145-0.134 0.392-0.251 0.653-0.123 0.273-0.278 0.594-0.432 0.905-0.306 0.617-0.618 1.21-0.67 1.298-0.051 0.086-0.311 0.51-0.69 0.982-0.374 0.466-0.887 1.010-1.447 1.302-0.454 0.237-0.923 0.713-1.32 1.211-0.393 0.493-0.69 0.976-0.804 1.193-0.028 0.054-0.060 0.157-0.088 0.312-0.024 0.133-0.042 0.286-0.055 0.449 0.061-0.094 0.126-0.189 0.202-0.289 0.208-0.274 0.492-0.576 1.022-1.035 0.116-0.1 0.291-0.086 0.39 0.031s0.085 0.295-0.031 0.395c-0.514 0.444-0.767 0.718-0.943 0.95-0.089 0.117-0.161 0.227-0.239 0.35-0.011 0.018-0.023 0.036-0.035 0.055-0.069 0.109-0.146 0.229-0.24 0.367-0.067 0.097-0.122 0.211-0.166 0.337-0.184 0.531-0.141 1.195-0.096 1.445 0.004 0.024 0.029 0.094 0.090 0.217 0.056 0.114 0.132 0.25 0.216 0.394 0.003 0.006 0.007 0.011 0.010 0.017 0.024-0.104 0.053-0.212 0.088-0.323 0.183-0.573 0.535-1.231 1.113-1.716 0.118-0.099 0.292-0.082 0.389 0.037s0.081 0.296-0.036 0.394c-0.476 0.4-0.779 0.956-0.94 1.457-0.080 0.25-0.122 0.478-0.133 0.656-0.006 0.089-0.004 0.161 0.003 0.213 0.005 0.040 0.011 0.059 0.013 0.065 0.102 0.137 0.207 0.368 0.294 0.584 0.077-0.164 0.164-0.329 0.252-0.485 0.242-0.432 0.515-0.845 0.694-1.096 0.089-0.125 0.262-0.154 0.386-0.063s0.151 0.266 0.062 0.391c-0.169 0.237-0.43 0.633-0.661 1.044-0.236 0.422-0.417 0.821-0.457 1.077-0.053 0.335 0.014 0.936 0.122 1.548 0.106 0.598 0.242 1.158 0.302 1.386 0.076 0.29-0.024 0.574-0.133 0.778-0.022 0.040-0.045 0.080-0.069 0.117 0.168 0.082 0.365 0.251 0.365 0.546 0 0.073-0.008 0.182-0.017 0.298-0.004 0.052-0.008 0.105-0.011 0.158-0.012 0.184-0.021 0.392-0.010 0.599 0.016 0.305 0.071 0.559 0.178 0.737 0.272-0.323 0.48-0.552 0.635-0.711 0.095-0.097 0.171-0.17 0.232-0.222 0.050-0.043 0.113-0.095 0.175-0.121 0.108-0.047 0.234-0.019 0.313 0.069s0.095 0.217 0.039 0.322c-0.059 0.109-0.144 0.301-0.203 0.505-0.061 0.214-0.079 0.393-0.050 0.503 0.046 0.173 0.22 0.461 0.432 0.73 0.082 0.103 0.162 0.196 0.234 0.27 0.141-0.218 0.314-0.448 0.483-0.642 0.123-0.141 0.25-0.271 0.368-0.368 0.059-0.049 0.121-0.094 0.185-0.128 0.058-0.031 0.143-0.069 0.241-0.069 0.11 0 0.21 0.066 0.253 0.169s0.024 0.221-0.051 0.303c-0.156 0.17-0.299 0.543-0.35 0.971-0.025 0.206-0.026 0.41-0.002 0.586 0.007 0.048 0.015 0.093 0.025 0.135 0.226-0.13 0.46-0.215 0.655-0.278 0.075-0.024 0.136-0.043 0.192-0.060 0.062-0.019 0.116-0.035 0.171-0.054 0.047-0.016 0.080-0.029 0.103-0.040 0.007-0.003 0.011-0.006 0.014-0.007 0.066-0.069 0.203-0.236 0.332-0.417 0.066-0.093 0.125-0.183 0.169-0.26 0.041-0.073 0.055-0.111 0.058-0.12 0.001-0.002 0.001-0.002 0.001-0.002 0.022-0.153 0.162-0.26 0.313-0.238s0.256 0.164 0.235 0.317c-0.016 0.112-0.075 0.231-0.126 0.32-0.055 0.097-0.124 0.202-0.194 0.301 0.39-0.096 0.87-0.368 1.215-1.012 0.048-0.090 0.142-0.146 0.243-0.146 0.050 0 0.143-0.022 0.28-0.087 0.131-0.061 0.278-0.149 0.43-0.252 0.251-0.17 0.498-0.369 0.678-0.526-0.017-0.173-0.042-0.338-0.078-0.473-0.023-0.085-0.046-0.148-0.069-0.189-0.011-0.020-0.019-0.030-0.022-0.034-0.13-0.072-0.181-0.236-0.114-0.371 0.068-0.138 0.234-0.195 0.371-0.125 0.121 0.062 0.199 0.167 0.249 0.259 0.052 0.096 0.090 0.205 0.119 0.315s0.051 0.227 0.068 0.348c0.127-0.321 0.198-0.663 0.149-0.969-0.009-0.057-0.001-0.115 0.024-0.167 0.038-0.080 0.072-0.177 0.1-0.288 0.13-0.524 0.108-1.287-0.015-1.995-0.061-0.35-0.145-0.676-0.241-0.941-0.099-0.273-0.201-0.451-0.282-0.533-0.275-0.279-0.454-0.743-0.57-1.16-0.101-0.362-0.166-0.729-0.2-1.001-0.246-0.156-0.431-0.334-0.543-0.48-0.005-0.006-0.010-0.013-0.014-0.020-0.143-0.226-0.364-0.606-0.564-1.019-0.198-0.408-0.389-0.873-0.458-1.262-0.003-0.016-0.004-0.033-0.004-0.049 0-0.882 0.197-1.839 0.319-2.304-0.164-0.328-0.389-0.802-0.586-1.27-0.109-0.258-0.21-0.518-0.287-0.752-0.076-0.229-0.136-0.452-0.151-0.63-0.032-0.375-0.040-1.042-0.008-1.665 0.016-0.312 0.041-0.62 0.079-0.879 0.019-0.129 0.042-0.25 0.070-0.356 0.019-0.073 0.043-0.147 0.074-0.215 0.011-0.412 0.115-1.037 0.274-1.619 0.085-0.311 0.188-0.618 0.307-0.882 0.115-0.257 0.258-0.501 0.433-0.658 0.114-0.102 0.289-0.091 0.39 0.025s0.090 0.293-0.024 0.395c-0.086 0.077-0.189 0.233-0.296 0.47-0.103 0.229-0.197 0.507-0.277 0.8-0.146 0.534-0.237 1.086-0.252 1.437 0.389 0.459 0.884 1.207 1.203 2.080 0.19 0.52 0.321 1.094 0.325 1.683 0.084-0.125 0.168-0.248 0.248-0.366 0.319-0.465 0.614-0.875 0.784-1.058 0.105-0.113 0.28-0.118 0.391-0.012s0.116 0.283 0.012 0.396c-0.136 0.147-0.407 0.519-0.732 0.994-0.32 0.467-0.68 1.012-0.989 1.489-0.164 0.253-0.314 0.487-0.436 0.679-0.11 0.401-0.312 1.342-0.316 2.192 0.058 0.305 0.217 0.701 0.405 1.089 0.187 0.386 0.393 0.741 0.526 0.953 0.084 0.106 0.251 0.265 0.491 0.398 0.311 0.172 0.731 0.296 1.235 0.215 0.207-0.143 0.478-0.335 0.741-0.53 0.238-0.177 0.467-0.353 0.636-0.496 0.073-0.062 0.13-0.114 0.172-0.156-0.062-0.192-0.135-0.438-0.192-0.667-0.036-0.144-0.067-0.288-0.084-0.411-0.008-0.061-0.014-0.124-0.014-0.182 0-0.051 0.004-0.129 0.036-0.204 0.060-0.142 0.223-0.208 0.363-0.147 0.132 0.058 0.198 0.207 0.154 0.343-0 0.002-0 0.005-0 0.008 0 0.022 0.002 0.057 0.009 0.104 0.013 0.094 0.039 0.216 0.072 0.351 0.057 0.228 0.132 0.477 0.193 0.665 0.38 0.234 1.015 0.61 1.425 0.81 0.107 0.052 0.189 0.088 0.244 0.106 0.225 0.076 1.070 0.35 1.948 0.328 0.437-0.011 0.865-0.095 1.224-0.298 0.353-0.2 0.656-0.522 0.841-1.042 0.009-0.026 0.022-0.051 0.039-0.073 0.010-0.014 0.020-0.027 0.030-0.039l-0.539-0.109c-0.15-0.030-0.247-0.178-0.217-0.33s0.175-0.25 0.325-0.22l1.135 0.23c0.070-0.035 0.139-0.070 0.207-0.105 0.198-0.1 0.388-0.196 0.547-0.28 0.118-0.062 0.214-0.114 0.279-0.154 0.025-0.015 0.042-0.026 0.054-0.034 0.071-0.084 0.188-0.121 0.298-0.084 0.145 0.049 0.223 0.208 0.175 0.354-0.023 0.070-0.067 0.114-0.079 0.126l-0 0c-0.019 0.019-0.039 0.035-0.055 0.047-0.032 0.024-0.071 0.049-0.11 0.072-0.080 0.048-0.187 0.106-0.307 0.169-0.163 0.085-0.359 0.185-0.56 0.286-0.095 0.048-0.192 0.097-0.286 0.145-0.070 0.036-0.132 0.060-0.183 0.079-0.010 0.004-0.019 0.007-0.028 0.010-0.038 0.014-0.064 0.024-0.090 0.036-0.040 0.018-0.080 0.042-0.132 0.105-0.232 0.623-0.617 1.039-1.076 1.298-0.463 0.262-0.988 0.357-1.48 0.369-0.98 0.025-1.901-0.277-2.136-0.357-0.051-0.017-0.109-0.041-0.17-0.068-0.646 0.388-1.219 0.473-1.689 0.394-0.36-0.061-0.647-0.217-0.847-0.389-0.151 0.109-0.298 0.214-0.43 0.307 0.021 0.029 0.047 0.062 0.079 0.098 0.114 0.13 0.283 0.278 0.484 0.418 0.411 0.287 0.9 0.499 1.279 0.499 0.423 0 0.924-0.108 1.351-0.221 0.14-0.037 0.266-0.072 0.379-0.104 0.060-0.017 0.115-0.032 0.168-0.047 0.072-0.020 0.14-0.037 0.194-0.049 0.027-0.006 0.057-0.011 0.085-0.014 0.015-0.002 0.048-0.005 0.088-0.001 0.007-0.001 0.018-0.003 0.033-0.005 0.044-0.008 0.106-0.020 0.184-0.038 0.059-0.013 0.136-0.031 0.221-0.051 0.114-0.027 0.243-0.057 0.362-0.083 0.221-0.049 0.46-0.098 0.682-0.131 0.216-0.032 0.437-0.053 0.613-0.033 0.090 0.010 0.238-0.006 0.436-0.052 0.191-0.045 0.404-0.112 0.612-0.186 0.379-0.135 0.724-0.286 0.865-0.348 0.014-0.006 0.025-0.011 0.035-0.015-0.002 0.001-0.002 0.001 0.001-0.001 0.008-0.006 0.035-0.028 0.083-0.084 0.058-0.067 0.126-0.158 0.204-0.268 0.031-0.043 0.063-0.089 0.096-0.137 0.131-0.187 0.282-0.403 0.436-0.586 0.17-0.202 0.424-0.404 0.656-0.57 0.195-0.139 0.389-0.262 0.533-0.346 0.131-0.328 0.193-0.654 0.22-0.921 0.027-0.272 0.015-0.466 0.006-0.527-0.002-0.004-0.004-0.009-0.007-0.016-0.011-0.024-0.027-0.058-0.049-0.102-0.044-0.086-0.107-0.203-0.184-0.337-0.155-0.269-0.363-0.603-0.585-0.911-0.16-0.221-0.322-0.422-0.474-0.574-0.16-0.161-0.278-0.236-0.346-0.255-0.147-0.041-0.234-0.195-0.194-0.344s0.192-0.237 0.339-0.197c0.213 0.059 0.417 0.224 0.59 0.397 0.11 0.11 0.221 0.238 0.328 0.373 0.248-0.283 0.551-0.666 0.824-1.084 0.365-0.56 0.651-1.147 0.705-1.627 0.018-0.162 0.038-0.332 0.060-0.508 0.070-0.584 0.149-1.239 0.181-1.89 0.042-0.853 0-1.651-0.223-2.23-0.056-0.144 0.015-0.307 0.157-0.363s0.302 0.015 0.358 0.159c0.107 0.277 0.176 0.585 0.219 0.911 0.022-0.034 0.052-0.063 0.089-0.085 0.131-0.079 0.301-0.035 0.379 0.098 0.195 0.332 0.317 0.779 0.394 1.249 0.078 0.474 0.113 0.996 0.121 1.493s-0.012 0.977-0.045 1.37c-0.033 0.382-0.080 0.708-0.138 0.883-0.045 0.138-0.161 0.376-0.303 0.652-0.147 0.284-0.333 0.628-0.533 0.989-0.379 0.684-0.808 1.432-1.105 1.942 0.012 0.138 0.013 0.347-0.011 0.59-0.031 0.318-0.108 0.716-0.275 1.119v1.872c0 0.056-0.015 0.108-0.022 0.129-0.009 0.031-0.022 0.065-0.035 0.1-0.027 0.071-0.066 0.159-0.111 0.259-0.092 0.201-0.218 0.461-0.362 0.741-0.286 0.56-0.643 1.214-0.926 1.661-0.341 0.537-0.264 1.174-0.162 1.491 0.112 0.072 0.24 0.181 0.358 0.326 0.176 0.216 0.338 0.519 0.398 0.914 0.041 0.271 0.189 0.608 0.375 0.935 0.134 0.235 0.279 0.45 0.398 0.611l0.305-0.113c0.002-0.026 0.004-0.052 0.006-0.080 0.012-0.135 0.035-0.304 0.067-0.476 0.032-0.171 0.076-0.354 0.132-0.514 0.052-0.148 0.13-0.324 0.255-0.436 0.114-0.103 0.289-0.092 0.39 0.023s0.091 0.293-0.023 0.396c0 0-0 0-0.001 0.001s-0.001 0.001-0.003 0.003-0.005 0.006-0.009 0.011c-0.007 0.010-0.016 0.024-0.026 0.042-0.020 0.038-0.042 0.087-0.064 0.149-0.043 0.124-0.081 0.276-0.11 0.431-0.029 0.154-0.049 0.305-0.060 0.423-0.005 0.059-0.008 0.107-0.009 0.142-0 0.011-0 0.020-0 0.025 0.003 0.008 0.008 0.021 0.015 0.040 0.014 0.037 0.034 0.085 0.058 0.141 0.048 0.113 0.112 0.255 0.18 0.398s0.138 0.285 0.2 0.399c0.031 0.057 0.058 0.105 0.081 0.141 0.016 0.025 0.026 0.039 0.031 0.045 0.003 0.002 0.008 0.005 0.015 0.009 0.021 0.012 0.050 0.027 0.088 0.044 0.077 0.035 0.177 0.074 0.287 0.114 0.22 0.079 0.468 0.155 0.627 0.201 0.046 0.013 0.087 0.038 0.121 0.072 0.127 0.129 0.362 0.326 0.635 0.479 0.279 0.157 0.561 0.246 0.796 0.219 0.088-0.010 0.189-0.058 0.303-0.155s0.224-0.233 0.329-0.392c0.186-0.284 0.332-0.614 0.417-0.857-0.103-0.309-0.209-0.561-0.283-0.716-0.067-0.139-0.010-0.307 0.127-0.375s0.303-0.010 0.37 0.129c0.094 0.195 0.222 0.506 0.341 0.877 0.134 0.416 0.26 0.92 0.31 1.428 0.239-0.14 0.511-0.341 0.805-0.591 0.444-0.377 0.92-0.851 1.39-1.36 0.906-0.979 1.774-2.070 2.32-2.806-0.027-0.391-0.080-0.753-0.142-1.032-0.034-0.152-0.069-0.272-0.101-0.357-0.016-0.042-0.030-0.070-0.039-0.086-0.001-0.001-0.001-0.002-0.002-0.003-0.106-0.094-0.127-0.256-0.043-0.374 0.089-0.126 0.261-0.155 0.385-0.065 0.065 0.047 0.108 0.11 0.135 0.157 0.030 0.051 0.056 0.109 0.079 0.169 0.046 0.12 0.088 0.27 0.125 0.437 0.075 0.336 0.135 0.767 0.161 1.224 0.008 0.139 0.013 0.28 0.014 0.423 0.468-0.656 0.485-1.404 0.462-1.725-0.012-0.168-0.102-0.473-0.267-0.868-0.16-0.385-0.378-0.826-0.619-1.254-0.223-0.396-0.332-0.891-0.382-1.329-0.048-0.422-0.045-0.818-0.025-1.072-0.062-0.405-0.158-1.017-0.272-1.55-0.059-0.275-0.12-0.52-0.182-0.703-0.031-0.092-0.059-0.16-0.083-0.204-0.009-0.016-0.015-0.026-0.019-0.032-0.115-0.081-0.152-0.239-0.083-0.366 0.074-0.135 0.242-0.184 0.376-0.109 0.108 0.061 0.174 0.167 0.212 0.239 0.045 0.084 0.084 0.184 0.12 0.29 0.072 0.213 0.139 0.483 0.199 0.765 0.080 0.374 0.151 0.784 0.208 1.135 0.532-0.525 0.749-1.209 0.788-1.904 0.046-0.814-0.156-1.617-0.362-2.119-0.586-0.634-1.112-1.021-1.288-1.129-0.131-0.080-0.173-0.252-0.095-0.384s0.248-0.176 0.379-0.096c0.157 0.096 0.48 0.329 0.869 0.688-0.045-0.103-0.1-0.202-0.165-0.298-0.207-0.307-0.488-0.559-0.712-0.741-0.332-0.27-1.098-0.776-1.703-1.176-0.211-0.14-0.403-0.266-0.55-0.366-0.168-0.114-0.398-0.341-0.634-0.597-0.243-0.263-0.514-0.578-0.771-0.888-0.507-0.611-0.982-1.226-1.071-1.37-0.048-0.078-0.13-0.243-0.229-0.448-0.068-0.141-0.148-0.309-0.237-0.496-0.044-0.093-0.091-0.191-0.14-0.293-0.292-0.611-0.65-1.353-1.001-2.017-0.242-0.459-0.637-0.73-1.049-0.881-0.416-0.153-0.832-0.177-1.078-0.155-0.094 0.009-0.185-0.032-0.243-0.107-0.558-0.727-1.598-1.828-2.888-2.744-1.294-0.919-2.809-1.63-4.324-1.63-1.913 0-3.521 0.835-4.788 1.811-0.945 0.728-1.675 1.51-2.207 2.081zM34.152 15.496c0.228 0.565 0.445 1.44 0.394 2.343-0.051 0.912-0.38 1.875-1.271 2.546-0.011 0.22-0.009 0.534 0.029 0.866 0.046 0.407 0.143 0.815 0.312 1.116 0.25 0.444 0.478 0.905 0.648 1.314 0.166 0.398 0.29 0.778 0.309 1.046 0.033 0.466 0.005 1.805-1.152 2.702-0.087 0.068-0.206 0.076-0.302 0.022s-0.151-0.161-0.14-0.273c0.009-0.090 0.016-0.181 0.020-0.274-0.532 0.685-1.218 1.518-1.928 2.286-0.479 0.517-0.972 1.009-1.438 1.406-0.461 0.392-0.917 0.71-1.321 0.858-0.085 0.031-0.179 0.018-0.253-0.034s-0.118-0.138-0.118-0.229c0-0.302-0.041-0.619-0.103-0.926-0.057 0.107-0.12 0.215-0.187 0.318-0.122 0.186-0.266 0.367-0.432 0.509s-0.366 0.257-0.597 0.284c-0.404 0.047-0.808-0.107-1.127-0.285-0.291-0.163-0.542-0.365-0.706-0.521-0.165-0.048-0.389-0.119-0.595-0.192-0.117-0.042-0.232-0.087-0.329-0.131-0.048-0.022-0.095-0.045-0.137-0.069-0.038-0.022-0.087-0.054-0.129-0.096s-0.079-0.097-0.108-0.143c-0.032-0.050-0.066-0.11-0.1-0.173-0.069-0.126-0.144-0.278-0.214-0.427-0.069-0.145-0.134-0.289-0.184-0.407l-0.424 0.156c-0.11 0.041-0.234 0.006-0.308-0.086-0.147-0.182-0.369-0.492-0.568-0.841-0.196-0.344-0.386-0.754-0.443-1.13-0.043-0.284-0.158-0.496-0.278-0.643-0.111-0.137-0.222-0.211-0.274-0.236-0.062-0.030-0.11-0.081-0.137-0.145-0.153-0.37-0.334-1.293 0.176-2.096 0.27-0.425 0.618-1.062 0.9-1.615 0.141-0.276 0.264-0.528 0.351-0.719 0.044-0.096 0.077-0.173 0.099-0.23 0.009-0.023 0.015-0.040 0.019-0.052v-1.402c-0.051 0.034-0.104 0.071-0.156 0.108-0.223 0.159-0.431 0.33-0.555 0.477-0.136 0.161-0.267 0.348-0.397 0.533-0.036 0.051-0.071 0.102-0.107 0.152-0.079 0.112-0.16 0.221-0.237 0.31-0.070 0.080-0.166 0.181-0.282 0.231-0.009 0.004-0.020 0.009-0.034 0.015-0.14 0.061-0.502 0.22-0.901 0.362-0.218 0.078-0.452 0.152-0.671 0.204-0.212 0.050-0.436 0.084-0.622 0.063-0.101-0.011-0.263-0.001-0.471 0.030-0.203 0.030-0.427 0.076-0.644 0.124-0.129 0.029-0.24 0.055-0.344 0.079-0.082 0.019-0.16 0.037-0.238 0.055-0.080 0.018-0.153 0.033-0.212 0.043-0.029 0.005-0.059 0.009-0.088 0.012l-0.001 0c-0.013 0.001-0.042 0.004-0.078 0-0.005 0.001-0.011 0.002-0.020 0.004-0.038 0.008-0.092 0.022-0.163 0.041-0.046 0.012-0.098 0.027-0.156 0.043-0.116 0.032-0.252 0.071-0.396 0.109-0.433 0.114-0.991 0.238-1.489 0.238-0.543 0-1.144-0.285-1.592-0.598-0.229-0.159-0.433-0.336-0.583-0.507-0.075-0.085-0.141-0.174-0.191-0.264-0.001-0.001-0.001-0.002-0.002-0.004-0.35 0.033-0.667-0.010-0.943-0.095 0.032 0.18 0.075 0.376 0.13 0.571 0.113 0.407 0.262 0.747 0.429 0.916 0.168 0.17 0.303 0.442 0.41 0.735 0.11 0.302 0.201 0.662 0.266 1.038 0.129 0.744 0.163 1.596 0.007 2.229-0.027 0.11-0.061 0.217-0.103 0.316 0.047 0.429-0.062 0.857-0.205 1.21-0.154 0.379-0.36 0.7-0.509 0.885-0.074 0.093-0.199 0.128-0.31 0.086-0.101-0.038-0.171-0.132-0.18-0.239-0.125 0.098-0.26 0.198-0.397 0.291-0.165 0.112-0.339 0.216-0.505 0.294-0.107 0.050-0.224 0.095-0.341 0.12-0.638 1.071-1.619 1.27-2.163 1.214-0.011 0.006-0.022 0.011-0.032 0.016-0.051 0.024-0.107 0.045-0.162 0.064s-0.127 0.041-0.201 0.064c-0.058 0.018-0.117 0.036-0.169 0.053-0.27 0.087-0.55 0.199-0.768 0.381-0.059 0.049-0.136 0.072-0.212 0.061s-0.145-0.052-0.189-0.116c-0.127-0.182-0.194-0.412-0.226-0.641-0.032-0.232-0.029-0.485 0-0.729 0.002-0.014 0.004-0.029 0.005-0.043-0.105 0.147-0.197 0.293-0.262 0.418-0.056 0.107-0.172 0.165-0.29 0.145-0.090-0.015-0.165-0.066-0.206-0.096-0.051-0.037-0.105-0.084-0.157-0.134-0.105-0.101-0.223-0.234-0.336-0.377-0.218-0.276-0.458-0.642-0.535-0.936-0.026-0.099-0.035-0.203-0.032-0.308-0.104 0.12-0.22 0.258-0.349 0.415-0.091 0.111-0.25 0.133-0.368 0.052-0.455-0.314-0.565-0.9-0.589-1.357-0.012-0.24-0.002-0.474 0.011-0.666 0.005-0.075 0.010-0.14 0.014-0.197 0.007-0.098 0.013-0.17 0.013-0.222 0-0.006-0-0.006-0.001-0.007s-0-0-0.001-0c-0.005-0.006-0.020-0.020-0.055-0.037-0.075-0.034-0.178-0.050-0.25-0.050-0.113 0-0.215-0.070-0.257-0.177s-0.015-0.228 0.067-0.307c0.075-0.072 0.187-0.204 0.268-0.354 0.084-0.157 0.107-0.282 0.085-0.366-0.063-0.239-0.203-0.815-0.312-1.431-0.101-0.571-0.185-1.222-0.133-1.666-0.051-0.156-0.127-0.373-0.209-0.581-0.098-0.249-0.19-0.442-0.249-0.518-0.009-0.012-0.018-0.025-0.026-0.037-0.137-0.204-0.338-0.516-0.513-0.812-0.088-0.149-0.171-0.298-0.235-0.429-0.060-0.122-0.12-0.257-0.14-0.368-0.053-0.293-0.107-1.034 0.101-1.68-0.006-0.258-0.004-0.637 0.023-1.005 0.014-0.196 0.035-0.394 0.067-0.57 0.030-0.17 0.075-0.343 0.144-0.476 0.132-0.25 0.448-0.763 0.862-1.282 0.409-0.514 0.938-1.065 1.497-1.357 0.454-0.237 0.908-0.705 1.271-1.157 0.358-0.446 0.604-0.847 0.645-0.917 0.040-0.067 0.342-0.642 0.65-1.262 0.153-0.308 0.305-0.623 0.423-0.886 0.124-0.276 0.198-0.464 0.213-0.537 0.048-0.229 0.22-0.876 0.4-1.499 0.091-0.313 0.185-0.624 0.268-0.878 0.079-0.24 0.159-0.463 0.224-0.573 0.013-0.022 0.028-0.050 0.046-0.082 0.204-0.368 0.739-1.334 2.009-1.39 0.104-0.106 0.226-0.237 0.365-0.386 0.533-0.571 1.319-1.415 2.305-2.174 1.32-1.017 3.044-1.925 5.122-1.925 1.678 0 3.305 0.783 4.641 1.732 1.274 0.905 2.312 1.98 2.917 2.743 0.313-0.008 0.738 0.038 1.163 0.195 0.503 0.185 1.025 0.532 1.348 1.144 0.356 0.675 0.719 1.426 1.011 2.037 0.049 0.103 0.096 0.202 0.141 0.296 0.088 0.185 0.167 0.351 0.235 0.491 0.105 0.216 0.172 0.35 0.201 0.397 0.064 0.104 0.511 0.688 1.025 1.307 0.254 0.305 0.518 0.612 0.752 0.865 0.241 0.26 0.43 0.441 0.538 0.514 0.134 0.090 0.313 0.209 0.515 0.342 0.61 0.403 1.421 0.94 1.777 1.228 0.237 0.192 0.569 0.485 0.823 0.863 0.243 0.361 0.425 0.817 0.363 1.342zM5.839 29.66c0 0-0 0-0.002 0.001 0.001-0 0.001-0.001 0.002-0.001zM16.084 22.691c0.004-0 0.003-0-0.001 0 0.001-0 0.001-0 0.001-0zM22.112 21.279c0-0.001 0 0-0.001 0.004 0-0.002 0.001-0.003 0.001-0.004zM32.699 24.516c-0-0.001 0-0 0.001 0.001-0.001-0.001-0.001-0.001-0.001-0.001zM22.678 17.098c0.27-0.467 0.596-1.040 0.891-1.573 0.199-0.359 0.383-0.698 0.526-0.975 0.147-0.285 0.24-0.482 0.268-0.569 0.035-0.105 0.079-0.371 0.112-0.754 0.032-0.373 0.051-0.834 0.043-1.312s-0.041-0.971-0.113-1.41c-0.065-0.396-0.158-0.73-0.278-0.97 0.026 0.382 0.023 0.778 0.004 1.168-0.033 0.673-0.115 1.357-0.186 1.943-0.021 0.173-0.041 0.337-0.058 0.491-0.069 0.616-0.417 1.295-0.793 1.872-0.317 0.486-0.672 0.925-0.948 1.233 0.185 0.269 0.353 0.543 0.483 0.77 0.017 0.029 0.033 0.058 0.049 0.086zM12.901 20.899c0.12 0.079 0.279 0.15 0.473 0.183 0.257 0.043 0.589 0.022 0.989-0.153-0.305-0.169-0.63-0.362-0.881-0.514-0.054 0.053-0.119 0.111-0.189 0.17-0.113 0.096-0.249 0.204-0.393 0.314zM13.168 19.936c-0 0-0 0-0 0.001 0.003-0.005 0.004-0.006 0-0.001zM13.375 18.724c0 0-0 0.001-0 0.002 0-0.001 0-0.002 0-0.002zM8.997 15.654c0.058-0.091 0.12-0.185 0.183-0.283 0.344-0.863 0.23-1.8-0.080-2.646-0.224-0.612-0.544-1.16-0.839-1.57-0.033 0.23-0.057 0.51-0.071 0.805-0.030 0.607-0.022 1.247 0.007 1.588 0.009 0.108 0.051 0.279 0.124 0.499 0.072 0.215 0.167 0.461 0.272 0.712 0.131 0.311 0.274 0.625 0.403 0.895zM4.693 30.46c0 0-0.001-0-0.002-0.001 0.001 0.001 0.002 0.001 0.002 0.001z"></path>
<path fill="#cd9d9e" d="M14.431 20.936c-0.645 0.34-1.126 0.284-1.535-0.034l0.583-0.544c0.215 0.125 0.399 0.238 0.952 0.578z"></path>
<path fill="#96866c" d="M6.244 11.592c0.112 0.040 0.17 0.165 0.13 0.278-0.166 0.471-0.514 1.196-1.027 1.86-0.512 0.662-1.206 1.287-2.068 1.515-0.115 0.030-0.232-0.039-0.262-0.156s0.039-0.236 0.154-0.266c0.734-0.195 1.355-0.737 1.839-1.363 0.482-0.623 0.809-1.305 0.961-1.737 0.040-0.113 0.163-0.172 0.275-0.132zM5.161 14.64c0.096 0.070 0.118 0.206 0.049 0.304-0.24 0.338-0.65 0.866-1.103 1.354-0.447 0.481-0.962 0.953-1.413 1.147-0.109 0.047-0.235-0.005-0.282-0.116s0.005-0.239 0.114-0.286c0.36-0.155 0.822-0.564 1.268-1.044 0.439-0.472 0.837-0.985 1.067-1.31 0.069-0.098 0.204-0.12 0.3-0.050zM6.674 14.844c0.104 0.058 0.142 0.19 0.085 0.296-0.145 0.268-0.379 0.68-0.612 1.049-0.116 0.184-0.234 0.36-0.342 0.503-0.101 0.134-0.212 0.266-0.316 0.333-0.143 0.092-0.677 0.547-1.133 1.165-0.461 0.624-0.792 1.348-0.646 1.996 0.026 0.117-0.046 0.234-0.162 0.261s-0.231-0.046-0.257-0.164c-0.191-0.847 0.245-1.71 0.721-2.354 0.481-0.651 1.052-1.146 1.247-1.271 0.031-0.020 0.101-0.091 0.205-0.23 0.097-0.129 0.208-0.294 0.322-0.474 0.226-0.358 0.456-0.762 0.597-1.023 0.057-0.106 0.188-0.144 0.292-0.086zM6.313 17.307c0.102 0.062 0.135 0.196 0.074 0.299-0.337 0.57-0.813 1.521-1.144 2.511-0.165 0.494-0.292 0.993-0.349 1.455-0.057 0.464-0.040 0.877 0.069 1.208 0.038 0.114-0.023 0.238-0.136 0.276s-0.234-0.024-0.272-0.138c-0.137-0.416-0.148-0.901-0.088-1.399 0.061-0.5 0.197-1.029 0.368-1.541 0.342-1.024 0.833-2.003 1.182-2.595 0.061-0.103 0.193-0.137 0.295-0.075zM7.397 18.665c0.108 0.050 0.156 0.179 0.107 0.288-0.043 0.097-0.097 0.262-0.112 0.427-0.016 0.172 0.013 0.295 0.076 0.364 0.093 0.104 0.193 0.262 0.288 0.43 0.097 0.172 0.196 0.368 0.288 0.559 0.182 0.381 0.339 0.753 0.388 0.886 0.031 0.084 0.085 0.251 0.148 0.445 0.034 0.106 0.071 0.22 0.108 0.333 0.109 0.332 0.219 0.65 0.288 0.789 0.053 0.108 0.010 0.238-0.096 0.292s-0.235 0.010-0.288-0.097c-0.085-0.173-0.205-0.524-0.311-0.846-0.041-0.124-0.079-0.244-0.115-0.352-0.060-0.185-0.108-0.335-0.136-0.411-0.043-0.116-0.194-0.475-0.372-0.849-0.089-0.186-0.184-0.373-0.274-0.533-0.092-0.164-0.173-0.286-0.233-0.353-0.184-0.205-0.205-0.481-0.185-0.698 0.021-0.223 0.090-0.435 0.149-0.566 0.049-0.11 0.176-0.158 0.285-0.108zM6.112 20.15c0.114 0.035 0.177 0.157 0.143 0.272-0.112 0.372-0.28 0.954-0.42 1.492-0.070 0.269-0.132 0.525-0.177 0.738-0.046 0.219-0.069 0.372-0.069 0.446 0 0.232 0.089 1.031 0.19 1.832 0.1 0.797 0.207 1.558 0.236 1.705 0.023 0.118-0.052 0.233-0.169 0.256s-0.23-0.053-0.253-0.171c-0.033-0.165-0.141-0.945-0.24-1.735-0.099-0.786-0.194-1.621-0.194-1.887 0-0.126 0.033-0.322 0.079-0.537 0.047-0.222 0.111-0.485 0.182-0.758 0.142-0.545 0.311-1.133 0.424-1.509 0.035-0.115 0.155-0.18 0.268-0.145zM2.912 22.633c0.117-0.020 0.228 0.060 0.247 0.179 0.123 0.75 0.155 2.004 0.156 2.379 0.089 0.449 0.036 1.482-0.755 2.464-0.075 0.093-0.21 0.107-0.302 0.031s-0.106-0.213-0.031-0.307c0.444-0.552 0.618-1.112 0.671-1.533-0.198 0.164-0.43 0.312-0.585 0.398-0.104 0.058-0.235 0.020-0.292-0.086s-0.020-0.238 0.084-0.296c0.14-0.078 0.351-0.213 0.524-0.357 0.087-0.072 0.157-0.142 0.204-0.203 0.042-0.055 0.050-0.084 0.052-0.090 0-0.001 0-0.001 0-0 0-0.341-0.031-1.602-0.151-2.33-0.019-0.119 0.060-0.231 0.177-0.251zM7.82 23.066c0.119-0.006 0.219 0.087 0.225 0.207 0.020 0.426 0.095 0.827 0.202 1.193 0.277 0.949 0.764 1.653 1.029 1.935 0.082 0.087 0.078 0.225-0.008 0.308s-0.222 0.079-0.304-0.008c-0.184-0.196-0.441-0.543-0.682-1.004-0.001 0.408-0.014 0.837-0.044 1.237-0.031 0.415-0.082 0.809-0.163 1.117-0.040 0.154-0.090 0.296-0.155 0.412-0.062 0.112-0.152 0.226-0.285 0.281-0.11 0.046-0.235-0.008-0.28-0.119s0.008-0.239 0.118-0.284c0.003-0.001 0.031-0.016 0.073-0.091 0.040-0.071 0.078-0.174 0.114-0.31 0.071-0.271 0.12-0.634 0.15-1.039 0.060-0.797 0.048-1.72 0.018-2.337-0.112-0.389-0.191-0.817-0.212-1.272-0.006-0.12 0.086-0.222 0.205-0.228zM9.685 23.586c0.090-0.079 0.226-0.068 0.303 0.023 0.173 0.203 0.343 0.508 0.504 0.852 0.163 0.348 0.323 0.751 0.471 1.163 0.297 0.824 0.552 1.692 0.697 2.242 0.031 0.116-0.038 0.236-0.152 0.267s-0.232-0.038-0.263-0.154c-0.142-0.54-0.393-1.396-0.685-2.205-0.146-0.405-0.301-0.794-0.456-1.126-0.157-0.335-0.308-0.597-0.442-0.754-0.077-0.091-0.067-0.229 0.022-0.307zM4.451 24.251c0.084 0.085 0.084 0.223 0 0.308-0.027 0.028-0.077 0.118-0.126 0.291-0.046 0.161-0.084 0.361-0.108 0.572s-0.034 0.426-0.027 0.617c0.007 0.195 0.031 0.346 0.065 0.438 0.096 0.258 0.069 0.605 0.020 0.897-0.052 0.304-0.138 0.598-0.203 0.779-0.041 0.113-0.164 0.171-0.275 0.13s-0.169-0.166-0.129-0.279c0.058-0.161 0.137-0.43 0.184-0.704 0.049-0.285 0.053-0.53 0.001-0.67-0.058-0.157-0.084-0.364-0.092-0.575-0.008-0.215 0.004-0.453 0.030-0.682s0.067-0.454 0.122-0.644c0.051-0.179 0.125-0.365 0.235-0.477 0.084-0.085 0.22-0.085 0.304 0zM7.551 24.591c0.119-0.001 0.216 0.095 0.217 0.216 0.005 0.492-0.026 1.269-0.137 2.012-0.055 0.372-0.131 0.74-0.235 1.061-0.102 0.317-0.238 0.61-0.422 0.812-0.081 0.088-0.217 0.094-0.304 0.012s-0.092-0.22-0.012-0.308c0.122-0.134 0.234-0.356 0.329-0.651 0.094-0.291 0.165-0.634 0.219-0.991 0.107-0.715 0.137-1.469 0.132-1.942-0.001-0.12 0.094-0.219 0.213-0.22zM5.216 27.585c0.099 0.067 0.125 0.202 0.060 0.302-0.020 0.030-0.051 0.123-0.078 0.297-0.024 0.162-0.040 0.363-0.048 0.578-0.017 0.43-0.007 0.901 0.008 1.203 0.006 0.12-0.085 0.223-0.204 0.229s-0.22-0.086-0.226-0.206c-0.016-0.311-0.027-0.796-0.009-1.243 0.009-0.223 0.025-0.442 0.053-0.626 0.026-0.173 0.067-0.354 0.145-0.473 0.066-0.1 0.199-0.127 0.298-0.060zM8.789 27.762c0.087-0.082 0.223-0.076 0.304 0.012 0.117 0.129 0.17 0.309 0.196 0.478 0.027 0.175 0.028 0.373 0.017 0.567-0.022 0.389-0.099 0.796-0.163 1.055-0.029 0.117-0.145 0.188-0.261 0.159s-0.185-0.148-0.156-0.264c0.059-0.24 0.13-0.62 0.151-0.975 0.010-0.178 0.007-0.342-0.013-0.475-0.021-0.139-0.057-0.215-0.087-0.249-0.081-0.088-0.075-0.226 0.012-0.308z"></path>
<path fill="#96866c" d="M24.752 6.76c0.065-0.101 0.198-0.129 0.297-0.064 0.241 0.159 0.743 0.521 1.047 1.122 0.216 0.268 0.354 0.296 0.42 0.294 0.040-0.001 0.081-0.013 0.128-0.035 0.024-0.011 0.047-0.024 0.073-0.039 0.004-0.002 0.008-0.004 0.012-0.007 0.022-0.012 0.048-0.027 0.072-0.040 0.106-0.054 0.235-0.010 0.288 0.098s0.010 0.239-0.096 0.292c-0.014 0.007-0.029 0.015-0.050 0.028-0.005 0.003-0.010 0.006-0.016 0.009-0.028 0.016-0.063 0.035-0.101 0.054-0.078 0.037-0.179 0.074-0.3 0.076-0.255 0.006-0.512-0.136-0.779-0.475-0.009-0.012-0.018-0.025-0.024-0.039-0.25-0.507-0.681-0.823-0.908-0.973-0.099-0.066-0.127-0.201-0.063-0.302zM24.661 7.506c0.099-0.066 0.233-0.037 0.297 0.063 0.163 0.253 0.415 0.637 0.641 0.967 0.113 0.165 0.219 0.314 0.303 0.426 0.042 0.056 0.077 0.101 0.104 0.132 0.014 0.016 0.023 0.026 0.029 0.033 0 0.001 0.001 0.001 0.001 0.001 0.092 0.065 0.12 0.192 0.062 0.291-0.061 0.103-0.193 0.137-0.295 0.075-0.030-0.018-0.055-0.042-0.070-0.056-0.017-0.017-0.035-0.037-0.053-0.058-0.035-0.042-0.077-0.094-0.121-0.154-0.089-0.119-0.199-0.274-0.313-0.441-0.229-0.334-0.484-0.722-0.648-0.977-0.065-0.101-0.037-0.236 0.062-0.302zM26.233 9.931c0.101-0.063 0.234-0.030 0.295 0.073 0.085 0.141 0.183 0.373 0.213 0.629 0.030 0.259-0.010 0.567-0.239 0.816-0.165 0.179-0.251 0.484-0.273 0.8-0.011 0.153-0.005 0.299 0.009 0.416 0.007 0.058 0.017 0.108 0.026 0.146 0.005 0.019 0.010 0.034 0.014 0.045 0.002 0.006 0.004 0.010 0.005 0.013 0.001 0.002 0.001 0.003 0.002 0.003s0.001 0.001 0.001 0.001c0.041 0.073 0.051 0.158 0.055 0.219 0.004 0.069 0.002 0.146-0.005 0.224-0.012 0.157-0.041 0.34-0.072 0.514-0.031 0.172-0.065 0.34-0.092 0.469l-0.001 0.006c-0.014 0.066-0.025 0.12-0.032 0.161-0.004 0.019-0.006 0.034-0.008 0.044 0.001 0.007 0.005 0.024 0.012 0.050 0.011 0.039 0.028 0.085 0.048 0.128 0.021 0.045 0.041 0.080 0.059 0.101 0.003 0.004 0.005 0.006 0.007 0.009 0.103 0.033 0.167 0.14 0.145 0.25-0.023 0.118-0.137 0.195-0.253 0.171-0.111-0.022-0.187-0.098-0.232-0.153-0.049-0.060-0.087-0.13-0.117-0.194-0.030-0.065-0.054-0.132-0.070-0.191-0.015-0.052-0.030-0.118-0.030-0.174 0-0.026 0.004-0.052 0.006-0.065 0.003-0.018 0.006-0.038 0.011-0.060 0.009-0.044 0.020-0.102 0.034-0.167l0.001-0.004c0.027-0.13 0.060-0.293 0.090-0.459 0.030-0.169 0.056-0.336 0.066-0.471 0.005-0.068 0.006-0.122 0.004-0.162-0.001-0.023-0.004-0.035-0.005-0.039-0.050-0.094-0.079-0.228-0.095-0.36-0.018-0.146-0.024-0.319-0.012-0.501 0.024-0.352 0.122-0.779 0.387-1.067 0.115-0.125 0.147-0.288 0.126-0.468-0.021-0.182-0.094-0.355-0.153-0.453-0.062-0.103-0.030-0.237 0.072-0.299zM26.263 14.802c0 0-0-0-0.001-0.001 0.001 0.001 0.001 0.001 0.001 0.001zM27.809 12.402c0.112-0.040 0.235 0.019 0.274 0.133 0.176 0.504 0.501 1.289 0.901 1.996 0.2 0.354 0.416 0.683 0.639 0.948 0.225 0.267 0.443 0.453 0.644 0.539 0.109 0.047 0.16 0.175 0.114 0.286s-0.173 0.162-0.282 0.115c-0.29-0.125-0.56-0.369-0.803-0.657-0.245-0.292-0.477-0.646-0.685-1.014-0.416-0.735-0.751-1.545-0.933-2.068-0.040-0.113 0.019-0.238 0.131-0.278zM28.951 12.431c0.096-0.071 0.23-0.050 0.3 0.047 0.15 0.207 0.405 0.535 0.683 0.841 0.284 0.313 0.568 0.576 0.775 0.68 0.326 0.165 0.748 0.457 1.111 0.773 0.182 0.159 0.354 0.327 0.494 0.493 0.137 0.163 0.255 0.337 0.313 0.506 0.040 0.114-0.019 0.238-0.131 0.278s-0.235-0.019-0.274-0.133c-0.033-0.095-0.111-0.221-0.235-0.368-0.121-0.144-0.276-0.297-0.447-0.445-0.343-0.299-0.735-0.568-1.023-0.714-0.285-0.144-0.615-0.463-0.899-0.775-0.29-0.32-0.556-0.661-0.714-0.879-0.070-0.097-0.049-0.233 0.047-0.305zM26.923 14.296c0.115 0.032 0.182 0.151 0.151 0.268-0.070 0.261-0.123 0.689-0.050 1.106 0.072 0.414 0.261 0.793 0.653 1.012 0.651 0.365 1.089 1.11 1.346 1.833s0.353 1.489 0.266 1.947c-0.022 0.118-0.135 0.196-0.252 0.173s-0.193-0.137-0.17-0.255c0.067-0.351-0.006-1.032-0.248-1.718s-0.633-1.31-1.149-1.599c-0.542-0.303-0.782-0.822-0.868-1.318-0.086-0.493-0.025-0.986 0.059-1.296 0.031-0.116 0.149-0.184 0.264-0.153zM24.763 16.735c0.074 0.094 0.059 0.23-0.033 0.306 0-0 0-0 0-0s-0.008 0.008-0.023 0.030c-0.017 0.024-0.037 0.058-0.061 0.101-0.048 0.087-0.103 0.204-0.163 0.344-0.12 0.278-0.255 0.632-0.385 0.991-0.127 0.351-0.249 0.703-0.348 0.989l-0.010 0.029c-0.080 0.231-0.147 0.426-0.188 0.53 0.013 0.391-0 0.986-0.081 1.567-0.042 0.303-0.103 0.607-0.191 0.879-0.087 0.269-0.204 0.522-0.366 0.709-0.078 0.090-0.214 0.099-0.303 0.020s-0.098-0.217-0.019-0.308c0.108-0.124 0.202-0.314 0.28-0.556 0.077-0.24 0.134-0.518 0.174-0.805 0.035-0.252 0.057-0.507 0.069-0.746-0.175 0.276-0.366 0.567-0.491 0.754-0.066 0.1-0.2 0.126-0.298 0.059s-0.124-0.203-0.058-0.303c0.127-0.191 0.324-0.491 0.501-0.771 0.182-0.288 0.33-0.534 0.371-0.627 0.026-0.060 0.097-0.263 0.199-0.558l0.006-0.018c0.099-0.285 0.221-0.64 0.35-0.994 0.131-0.361 0.269-0.725 0.394-1.016 0.063-0.145 0.124-0.276 0.181-0.38 0.051-0.094 0.116-0.199 0.191-0.26 0.093-0.075 0.228-0.060 0.302 0.034zM29.774 17.903c-0.024 0.017-0.047 0.040-0.063 0.062-0.070 0.097-0.205 0.118-0.3 0.047s-0.116-0.207-0.046-0.305c0.073-0.101 0.223-0.247 0.43-0.262 0.238-0.017 0.436 0.139 0.578 0.414 0.154 0.297 0.283 0.528 0.418 0.696 0.132 0.164 0.255 0.251 0.392 0.283 0.152 0.035 0.303 0.14 0.433 0.252 0.135 0.117 0.271 0.263 0.392 0.415s0.232 0.313 0.316 0.463c0.079 0.141 0.149 0.298 0.161 0.433 0.011 0.12-0.076 0.226-0.195 0.237s-0.223-0.077-0.234-0.197c-0.003-0.036-0.033-0.124-0.107-0.258-0.070-0.125-0.167-0.267-0.276-0.403s-0.227-0.262-0.337-0.358c-0.116-0.1-0.203-0.148-0.251-0.159-0.262-0.061-0.461-0.224-0.629-0.433-0.165-0.206-0.312-0.473-0.465-0.767-0.051-0.099-0.096-0.145-0.124-0.166-0.024-0.018-0.037-0.017-0.043-0.017-0.010 0.001-0.028 0.006-0.052 0.023zM26.063 17.498c0.187 0.002 0.332 0.105 0.41 0.192 0.080 0.089 0.073 0.227-0.015 0.308s-0.224 0.074-0.304-0.015c-0.024-0.027-0.064-0.049-0.097-0.049-0.017-0-0.084 0.003-0.179 0.148-0.135 0.205-0.325 0.395-0.486 0.557-0.041 0.041-0.079 0.079-0.115 0.116-0.094 0.098-0.169 0.182-0.219 0.259s-0.065 0.128-0.065 0.161v1.37c0 0.196-0.020 0.395-0.039 0.573-0.007 0.072-0.015 0.141-0.020 0.204-0.019 0.234-0.014 0.406 0.042 0.54 0.046 0.111-0.006 0.239-0.116 0.285s-0.235-0.006-0.281-0.117c-0.098-0.239-0.093-0.503-0.073-0.744 0.007-0.082 0.015-0.162 0.023-0.24 0.017-0.167 0.034-0.328 0.034-0.501v-1.37c0-0.154 0.063-0.29 0.137-0.402s0.173-0.221 0.27-0.322c0.046-0.047 0.092-0.094 0.137-0.139 0.158-0.159 0.306-0.307 0.413-0.471 0.151-0.229 0.339-0.345 0.542-0.342zM26.971 19.518c0.118-0.011 0.223 0.078 0.233 0.198 0.042 0.475 0.074 1.232 0.037 1.968-0.018 0.368-0.055 0.735-0.117 1.061-0.062 0.322-0.153 0.622-0.291 0.843-0.196 0.314-0.248 0.78-0.215 1.269 0.033 0.482 0.145 0.946 0.237 1.221 0.038 0.114-0.022 0.238-0.134 0.276s-0.234-0.022-0.273-0.136c-0.102-0.306-0.223-0.807-0.259-1.331-0.035-0.517 0.010-1.099 0.281-1.532 0.095-0.153 0.174-0.39 0.232-0.693 0.057-0.299 0.092-0.644 0.11-1 0.036-0.712 0.004-1.448-0.036-1.907-0.011-0.12 0.077-0.226 0.195-0.236zM25.69 19.798c0.119-0.006 0.219 0.087 0.225 0.208 0.036 0.796 0.002 2.050-0.219 3.231-0.111 0.591-0.27 1.171-0.495 1.67-0.224 0.497-0.52 0.929-0.915 1.203-0.098 0.068-0.232 0.043-0.299-0.057s-0.042-0.235 0.056-0.303c0.305-0.212 0.56-0.566 0.766-1.024 0.206-0.456 0.356-1 0.463-1.57 0.214-1.141 0.247-2.359 0.212-3.13-0.006-0.12 0.086-0.222 0.205-0.228zM30.518 19.945c0.107-0.053 0.235-0.009 0.288 0.099 0.286 0.59 0.897 1.857 1.046 2.184 0.058 0.128 0.107 0.339 0.15 0.557 0.028 0.138 0.056 0.293 0.084 0.45 0.018 0.098 0.036 0.196 0.054 0.292 0.048 0.255 0.097 0.494 0.15 0.679 0.027 0.093 0.052 0.165 0.076 0.217 0.018 0.039 0.030 0.053 0.031 0.055 0.093 0.068 0.116 0.199 0.052 0.297-0.066 0.1-0.199 0.127-0.298 0.060-0.086-0.058-0.139-0.152-0.173-0.225-0.038-0.081-0.071-0.179-0.101-0.282-0.059-0.207-0.112-0.464-0.16-0.719-0.019-0.102-0.038-0.203-0.055-0.301-0.028-0.153-0.055-0.301-0.082-0.436-0.046-0.229-0.086-0.387-0.119-0.461-0.146-0.321-0.754-1.581-1.042-2.174-0.052-0.108-0.008-0.239 0.098-0.292zM27.761 22.976c0.117 0.019 0.197 0.131 0.178 0.25-0.024 0.15-0.049 0.397-0.044 0.639 0.002 0.121 0.012 0.235 0.031 0.334 0.019 0.101 0.046 0.17 0.072 0.211 0.111 0.168 0.24 0.45 0.354 0.719 0.115 0.274 0.221 0.553 0.284 0.728 0.041 0.113-0.017 0.238-0.129 0.279s-0.235-0.017-0.275-0.13c-0.060-0.168-0.163-0.44-0.275-0.706-0.114-0.271-0.23-0.518-0.316-0.649-0.072-0.109-0.112-0.242-0.137-0.369-0.025-0.131-0.036-0.272-0.038-0.408-0.005-0.272 0.022-0.546 0.050-0.717 0.019-0.119 0.129-0.2 0.246-0.18zM29.846 23.292c0.097 0.069 0.121 0.205 0.053 0.303-0.011 0.017-0.027 0.058-0.017 0.148 0.009 0.087 0.039 0.193 0.084 0.309 0.067 0.173 0.152 0.336 0.221 0.467 0.025 0.048 0.048 0.092 0.067 0.13 0.030 0.061 0.047 0.137 0.059 0.204 0.013 0.073 0.023 0.159 0.030 0.25 0.014 0.183 0.018 0.402 0.010 0.616-0.008 0.212-0.028 0.428-0.064 0.603-0.018 0.087-0.041 0.172-0.074 0.245-0.027 0.062-0.077 0.152-0.17 0.204-0.003 0.003-0.011 0.012-0.022 0.030-0.022 0.034-0.048 0.083-0.076 0.149-0.056 0.131-0.111 0.303-0.157 0.485s-0.082 0.365-0.1 0.518c-0.009 0.076-0.014 0.142-0.014 0.193-0 0.026 0.001 0.046 0.003 0.060s0.004 0.021 0.003 0.019c0.003 0.009 0.006 0.016 0.008 0.021 0.005 0.001 0.013 0.003 0.024 0.005 0.002 0 0.005 0.001 0.007 0.001 0.038 0.007 0.107 0.020 0.179 0.058 0.081 0.042 0.153 0.108 0.217 0.205 0.045 0.068 0.063 0.146 0.070 0.21 0.007 0.067 0.006 0.138-0.001 0.209-0.013 0.141-0.047 0.302-0.089 0.461-0.084 0.32-0.209 0.662-0.299 0.881-0.045 0.111-0.171 0.164-0.281 0.118s-0.162-0.174-0.116-0.285c0.085-0.207 0.202-0.53 0.28-0.826 0.039-0.149 0.066-0.283 0.076-0.388 0.005-0.053 0.005-0.092 0.002-0.12-0.001-0.012-0.003-0.020-0.004-0.023-0.026-0.039-0.045-0.050-0.053-0.054-0.013-0.007-0.025-0.010-0.070-0.018-0.002-0-0.003-0.001-0.005-0.001-0.038-0.007-0.116-0.022-0.188-0.073-0.083-0.058-0.134-0.143-0.166-0.242-0.023-0.069-0.028-0.148-0.028-0.218 0-0.074 0.006-0.158 0.017-0.245 0.021-0.175 0.060-0.378 0.11-0.574s0.112-0.391 0.179-0.549c0.034-0.079 0.071-0.154 0.113-0.217 0.034-0.051 0.083-0.115 0.151-0.157 0.002-0.003 0.004-0.008 0.006-0.013 0.014-0.032 0.030-0.084 0.045-0.155 0.029-0.142 0.048-0.331 0.055-0.531 0.007-0.199 0.004-0.4-0.009-0.565-0.006-0.083-0.015-0.153-0.024-0.208-0.005-0.027-0.010-0.049-0.014-0.065s-0.007-0.021-0.007-0.021 0 0 0 0c-0.012-0.025-0.030-0.058-0.051-0.099-0.069-0.132-0.175-0.334-0.253-0.534-0.051-0.133-0.096-0.28-0.111-0.422-0.015-0.14-0.003-0.305 0.093-0.444 0.068-0.099 0.202-0.123 0.299-0.054zM29.81 26.413c0 0 0-0 0.001-0.001-0.001 0.001-0.001 0.001-0.001 0.001zM29.694 28.258c0 0-0-0-0.001-0.001 0 0 0.001 0.001 0.001 0.001zM22.787 23.851c0.081 0.088 0.076 0.226-0.011 0.308-0.215 0.203-0.54 0.561-0.806 0.965-0.272 0.412-0.456 0.833-0.446 1.173 0.004 0.12-0.090 0.221-0.208 0.224s-0.218-0.091-0.221-0.211c-0.014-0.482 0.236-1 0.518-1.428 0.288-0.436 0.635-0.819 0.87-1.041 0.087-0.082 0.223-0.077 0.304 0.011zM30.766 24.747c0-0.12 0.096-0.218 0.215-0.218 0.238 0 0.387 0.035 0.505 0.080 0.034 0.013 0.073 0.030 0.101 0.042 0.012 0.005 0.021 0.009 0.028 0.012 0.031 0.013 0.052 0.020 0.076 0.024 0.129 0.022 0.191 0.124 0.216 0.176 0.029 0.060 0.045 0.129 0.056 0.193 0.021 0.131 0.027 0.296 0.023 0.465-0.008 0.338-0.055 0.738-0.122 0.993-0.035 0.131-0.016 0.358 0.042 0.62 0.055 0.251 0.138 0.497 0.195 0.644 0.044 0.112-0.010 0.239-0.12 0.283s-0.235-0.010-0.279-0.121c-0.065-0.165-0.155-0.433-0.216-0.71-0.059-0.267-0.102-0.585-0.038-0.827 0.056-0.212 0.101-0.575 0.108-0.891 0.004-0.158-0.002-0.292-0.017-0.383-0.002-0.013-0.004-0.023-0.006-0.033-0.030-0.009-0.057-0.020-0.082-0.030-0.022-0.009-0.038-0.016-0.053-0.023-0.021-0.009-0.038-0.017-0.064-0.027-0.066-0.025-0.163-0.052-0.354-0.052-0.119 0-0.215-0.098-0.215-0.218zM31.522 25.055l-0-0c-0.001-0.001-0.001-0.002-0.001-0.002s0 0.001 0.001 0.002zM23.278 25.193c0.096 0.071 0.118 0.207 0.048 0.304-0.164 0.23-0.415 0.654-0.622 1.162-0.207 0.51-0.362 1.088-0.351 1.631 0.003 0.12-0.092 0.22-0.21 0.222s-0.217-0.093-0.219-0.213c-0.013-0.627 0.164-1.268 0.383-1.807 0.219-0.54 0.487-0.994 0.671-1.252 0.070-0.098 0.204-0.119 0.3-0.049zM26.605 26.955c0.103 0.060 0.139 0.193 0.080 0.297-0.117 0.207-0.265 0.531-0.334 0.828-0.035 0.149-0.046 0.276-0.032 0.372 0.013 0.092 0.044 0.135 0.081 0.16 0.201 0.132 0.287 0.344 0.316 0.549 0.029 0.203 0.009 0.428-0.025 0.634-0.031 0.191-0.077 0.382-0.116 0.542-0.003 0.014-0.007 0.028-0.010 0.041-0.020 0.086-0.038 0.159-0.050 0.222-0.013 0.065-0.017 0.104-0.017 0.125 0 0.12-0.096 0.218-0.215 0.218s-0.215-0.098-0.215-0.218c0-0.065 0.012-0.14 0.026-0.21 0.014-0.073 0.034-0.155 0.054-0.24 0.003-0.013 0.006-0.026 0.009-0.039 0.039-0.162 0.081-0.337 0.11-0.512 0.031-0.191 0.043-0.363 0.024-0.5-0.019-0.135-0.065-0.207-0.124-0.246-0.172-0.113-0.249-0.289-0.273-0.465-0.024-0.171-0.001-0.358 0.039-0.533 0.082-0.351 0.25-0.715 0.379-0.944 0.059-0.104 0.19-0.141 0.293-0.081zM24.823 27.273c0.116 0.025 0.191 0.14 0.166 0.258-0.065 0.313-0.143 0.816-0.165 1.303-0.011 0.243-0.009 0.476 0.015 0.677 0.024 0.205 0.067 0.354 0.123 0.445 0.062 0.102 0.031 0.237-0.070 0.3s-0.233 0.032-0.296-0.071c-0.104-0.171-0.157-0.395-0.184-0.623-0.027-0.233-0.029-0.492-0.017-0.749 0.024-0.514 0.106-1.041 0.174-1.371 0.024-0.118 0.138-0.193 0.254-0.169z"></path>
<path fill="#f7f6f4" d="M14.278 11.393c0-1.014-0.811-1.837-1.812-1.837s-1.812 0.822-1.812 1.837 0.811 1.837 1.812 1.837c1.001 0 1.812-0.822 1.812-1.837z"></path>
<path fill="none" stroke="#96866c" stroke-linejoin="miter" stroke-linecap="butt" stroke-miterlimit="4" stroke-width="0.3765" d="M14.278 11.393c0-1.014-0.811-1.837-1.812-1.837s-1.812 0.822-1.812 1.837 0.811 1.837 1.812 1.837c1.001 0 1.812-0.822 1.812-1.837z"></path>
<path fill="#9e9c85" d="M13.326 11.393c0-0.499-0.399-0.903-0.89-0.903s-0.89 0.404-0.89 0.903c0 0.499 0.399 0.903 0.89 0.903s0.89-0.404 0.89-0.903z"></path>
<path fill="#1b1d10" d="M12.773 11.393c0 0.206-0.165 0.374-0.368 0.374s-0.368-0.167-0.368-0.374c0-0.206 0.165-0.374 0.368-0.374s0.368 0.167 0.368 0.374z"></path>
<path fill="#96866c" d="M10.023 6.443c1.595-0.954 2.875-0.317 3.334 0.16 0.083 0.086 0.081 0.224-0.004 0.308s-0.221 0.082-0.304-0.004c-0.339-0.353-1.405-0.928-2.807-0.089-0.102 0.061-0.234 0.027-0.294-0.077s-0.026-0.237 0.076-0.298zM20.777 6.684c-0.569-0.002-1.119 0.142-1.446 0.273-0.11 0.044-0.235-0.010-0.279-0.122s0.010-0.239 0.12-0.283c0.369-0.148 0.973-0.307 1.606-0.304 0.632 0.002 1.324 0.166 1.823 0.699 0.082 0.087 0.078 0.225-0.008 0.308s-0.222 0.079-0.304-0.008c-0.386-0.413-0.942-0.561-1.512-0.563z"></path>
<path fill="#96866c" d="M13.050 18.584c-0.565 0-1.32-0.643-1.627-0.965-0.158-0.156 0.614 0 0.768-0.28s-0.246-0.809-0.614-0.747c-0.151 0.026-0.491 0.809-0.675 0.654-0.147-0.125-0.583-0.591-0.522-1.058 0-0.104 0.104-0.411 0.522-0.809 1.105-0.965 3.247-0.844 4.114-0.498 0.86 0.342 1.228 1.214 1.167 1.432s-0.583 0.84-1.105 1.090c-0.194-0.218-0.399-0.623-0.491-0.685-0.051-0.035-0.536-0.144-0.706 0-0.184 0.156-0.061 0.778 0.123 0.903 0.119 0.081 0.502 0.052 0.706 0.156-0.317 0.27-1.093 0.809-1.658 0.809z"></path>
<path fill="#96866c" d="M13.034 14.419c0.804-0.048 1.589 0.070 2.060 0.257 0.478 0.191 0.817 0.527 1.028 0.843 0.106 0.158 0.182 0.316 0.228 0.454 0.023 0.069 0.040 0.136 0.048 0.199 0.008 0.059 0.010 0.13-0.009 0.198-0.026 0.093-0.089 0.198-0.157 0.294-0.073 0.103-0.167 0.217-0.275 0.33-0.213 0.224-0.495 0.462-0.789 0.602-0.086 0.041-0.187 0.020-0.251-0.051-0.11-0.123-0.219-0.293-0.303-0.425l-0.004-0.006c-0.044-0.069-0.081-0.126-0.112-0.171-0.012-0.018-0.023-0.032-0.031-0.042-0.010-0.003-0.023-0.006-0.038-0.010-0.047-0.011-0.108-0.022-0.172-0.027s-0.126-0.006-0.175 0c-0.035 0.005-0.054 0.012-0.061 0.015-0.003 0.007-0.009 0.023-0.013 0.054-0.008 0.055-0.006 0.128 0.007 0.208s0.035 0.155 0.061 0.214c0.022 0.049 0.039 0.071 0.045 0.078 0.006 0.002 0.021 0.007 0.052 0.012 0.043 0.008 0.095 0.014 0.159 0.021 0.006 0.001 0.011 0.001 0.017 0.002l0.006 0.001c0.126 0.015 0.31 0.036 0.45 0.107 0.065 0.033 0.109 0.097 0.117 0.169s-0.020 0.145-0.075 0.192c-0.168 0.143-0.453 0.354-0.771 0.53-0.311 0.173-0.686 0.33-1.025 0.33-0.35 0-0.726-0.193-1.030-0.398-0.311-0.21-0.588-0.461-0.75-0.631-0.019-0.019-0.047-0.052-0.066-0.097-0.023-0.057-0.029-0.135 0.013-0.209 0.035-0.062 0.087-0.091 0.113-0.104 0.029-0.014 0.058-0.022 0.078-0.026 0.057-0.013 0.141-0.019 0.212-0.024 0.018-0.001 0.036-0.003 0.052-0.004 0.095-0.008 0.182-0.018 0.25-0.039 0.064-0.019 0.079-0.037 0.080-0.038 0.004-0.009 0.012-0.034-0.001-0.084-0.013-0.052-0.043-0.114-0.091-0.174-0.088-0.111-0.19-0.164-0.265-0.168-0.011 0.013-0.025 0.030-0.043 0.053-0.033 0.043-0.064 0.090-0.1 0.142-0.024 0.035-0.050 0.073-0.078 0.113-0.063 0.089-0.141 0.194-0.223 0.265-0.041 0.035-0.101 0.078-0.176 0.097-0.088 0.021-0.184 0.004-0.263-0.062-0.089-0.075-0.25-0.239-0.383-0.451-0.129-0.206-0.252-0.488-0.216-0.791 0.004-0.104 0.050-0.239 0.132-0.385 0.090-0.161 0.235-0.354 0.457-0.566 0.002-0.002 0.005-0.004 0.007-0.006 0.604-0.527 1.471-0.745 2.274-0.793zM11.668 16.783c0 0-0.001 0.001-0.004 0.003 0.002-0.002 0.004-0.003 0.004-0.003zM14.491 16.911c0 0-0.001-0-0.002-0.001 0.001 0 0.002 0.001 0.002 0.001zM11.044 15.539c-0.193 0.185-0.309 0.344-0.375 0.461-0.064 0.114-0.075 0.178-0.076 0.186-0 0.001-0 0.001-0 0.001 0 0.010-0.001 0.019-0.002 0.029-0.021 0.159 0.042 0.339 0.151 0.512 0.072 0.115 0.156 0.213 0.22 0.279 0.032-0.035 0.069-0.085 0.113-0.147 0.020-0.029 0.042-0.061 0.066-0.095 0.041-0.059 0.083-0.121 0.12-0.17 0.030-0.040 0.064-0.083 0.1-0.118 0.028-0.028 0.091-0.085 0.179-0.1 0.294-0.050 0.555 0.134 0.706 0.323 0.079 0.1 0.143 0.218 0.173 0.342s0.031 0.27-0.041 0.402c-0.080 0.146-0.225 0.211-0.334 0.243-0.063 0.019-0.129 0.031-0.191 0.040 0.12 0.104 0.259 0.214 0.406 0.313 0.292 0.197 0.576 0.325 0.791 0.325 0.226 0 0.522-0.112 0.819-0.277 0.113-0.063 0.222-0.131 0.322-0.198-0.033-0.004-0.065-0.009-0.095-0.015-0.058-0.011-0.143-0.030-0.213-0.077-0.097-0.066-0.16-0.174-0.2-0.264-0.043-0.098-0.075-0.211-0.093-0.322s-0.024-0.23-0.008-0.34c0.014-0.103 0.053-0.236 0.16-0.326 0.088-0.074 0.197-0.102 0.284-0.114 0.091-0.012 0.187-0.010 0.27-0.002s0.165 0.022 0.229 0.037c0.032 0.007 0.062 0.015 0.088 0.024 0.017 0.006 0.057 0.019 0.092 0.042 0.036 0.024 0.065 0.056 0.083 0.078 0.021 0.024 0.041 0.052 0.061 0.080 0.037 0.053 0.078 0.118 0.119 0.182l0.005 0.008c0.054 0.084 0.107 0.167 0.159 0.241 0.182-0.113 0.363-0.269 0.515-0.429 0.096-0.101 0.176-0.199 0.235-0.282 0.058-0.081 0.084-0.134 0.091-0.155 0-0.004-0-0.012-0.002-0.027-0.004-0.028-0.012-0.067-0.029-0.116-0.033-0.097-0.091-0.22-0.177-0.35-0.173-0.259-0.448-0.53-0.829-0.682-0.398-0.158-1.117-0.274-1.877-0.228s-1.514 0.25-2.015 0.685z"></path>
<path fill="#f7f6f4" d="M21.217 11.393c0-1.014-0.811-1.837-1.812-1.837s-1.812 0.822-1.812 1.837 0.811 1.837 1.812 1.837c1 0 1.812-0.822 1.812-1.837z"></path>
<path fill="none" stroke="#96866c" stroke-linejoin="miter" stroke-linecap="butt" stroke-miterlimit="4" stroke-width="0.3765" d="M21.217 11.393c0-1.014-0.811-1.837-1.812-1.837s-1.812 0.822-1.812 1.837 0.811 1.837 1.812 1.837c1 0 1.812-0.822 1.812-1.837z"></path>
<path fill="#9e9c85" d="M20.265 11.393c0-0.499-0.399-0.903-0.89-0.903s-0.89 0.404-0.89 0.903c0 0.499 0.399 0.903 0.89 0.903s0.89-0.404 0.89-0.903z"></path>
<path fill="#1b1d10" d="M19.713 11.393c0 0.206-0.165 0.374-0.368 0.374s-0.368-0.167-0.368-0.374c0-0.206 0.165-0.374 0.368-0.374s0.368 0.167 0.368 0.374z"></path>
<path fill="#809da3" d="M14.493 25.027c0-0.447-0.357-0.809-0.798-0.809s-0.798 0.362-0.798 0.809 0.357 0.809 0.798 0.809c0.441 0 0.798-0.362 0.798-0.809z"></path>
<path fill="#e09870" d="M13.723 24.903v0.336c0 0.052 0.020 0.078 0.060 0.078 0.044 0 0.085-0.020 0.123-0.061 0.011 0 0.021 0.005 0.028 0.015s0.012 0.022 0.012 0.037c0 0.034-0.020 0.066-0.061 0.096s-0.092 0.044-0.152 0.044c-0.060 0-0.108-0.015-0.146-0.046s-0.056-0.078-0.056-0.141v-0.359c-0.029-0.001-0.052-0.008-0.066-0.021s-0.022-0.032-0.022-0.052c0-0.021 0.009-0.037 0.026-0.050 0.020 0.003 0.040 0.004 0.063 0.004v-0.037c0-0.043-0.014-0.072-0.042-0.087 0.031-0.036 0.068-0.054 0.111-0.054s0.075 0.012 0.095 0.036 0.029 0.061 0.029 0.112v0.030h0.185c0.006 0.007 0.009 0.015 0.009 0.025 0 0.026-0.014 0.048-0.042 0.067s-0.075 0.027-0.143 0.027h-0.010z"></path>
<path fill="#67907e" d="M19.958 24.716c0-0.447-0.357-0.809-0.798-0.809s-0.798 0.362-0.798 0.809 0.357 0.809 0.798 0.809c0.441 0 0.798-0.362 0.798-0.809z"></path>
<path fill="#e09870" d="M19.055 24.871c0 0.041 0.023 0.061 0.069 0.061 0.034 0 0.064-0.016 0.091-0.047v-0.121c-0.106 0.006-0.16 0.042-0.16 0.107zM19.407 24.601v0.283c0 0.052 0.022 0.085 0.066 0.1-0.015 0.021-0.035 0.038-0.060 0.052s-0.051 0.020-0.079 0.020c-0.061 0-0.098-0.027-0.113-0.082-0.051 0.055-0.114 0.082-0.19 0.082-0.056 0-0.102-0.014-0.135-0.042s-0.050-0.068-0.050-0.12c0-0.063 0.032-0.113 0.097-0.151s0.156-0.058 0.271-0.060v-0.118c0-0.056-0.022-0.083-0.066-0.083-0.018 0-0.033 0.006-0.045 0.017s-0.017 0.026-0.017 0.045c0 0.018 0.007 0.035 0.020 0.051-0.028 0.030-0.063 0.045-0.106 0.045s-0.073-0.010-0.093-0.029c-0.020-0.019-0.029-0.044-0.029-0.075 0-0.047 0.028-0.085 0.084-0.115s0.122-0.045 0.196-0.045c0.075 0 0.136 0.018 0.182 0.054s0.069 0.093 0.069 0.171z"></path>
<path fill="#809da3" d="M18.669 24.903c0-0.447-0.357-0.809-0.798-0.809s-0.798 0.362-0.798 0.809c0 0.447 0.357 0.809 0.798 0.809s0.798-0.362 0.798-0.809z"></path>
<path fill="#e09870" d="M17.884 24.969c0.033 0 0.062-0.021 0.087-0.064s0.038-0.096 0.038-0.162c0-0.066-0.012-0.116-0.037-0.152s-0.054-0.055-0.088-0.055c-0.022 0-0.043 0.008-0.064 0.022s-0.036 0.034-0.048 0.058v0.294c0.030 0.038 0.068 0.057 0.112 0.057zM17.579 25.254v-0.71c0-0.043-0.014-0.073-0.042-0.088 0.031-0.035 0.069-0.052 0.113-0.052 0.065 0 0.103 0.030 0.115 0.090 0.044-0.060 0.104-0.090 0.178-0.090s0.136 0.030 0.186 0.090c0.049 0.059 0.074 0.141 0.074 0.248s-0.029 0.19-0.088 0.25c-0.059 0.061-0.127 0.091-0.204 0.091-0.051 0-0.097-0.015-0.139-0.044v0.222c0 0.044 0.014 0.073 0.041 0.087-0.030 0.037-0.068 0.055-0.113 0.055-0.080 0-0.12-0.049-0.12-0.148z"></path>
<path fill="#67907e" d="M15.967 25.027c0-0.447-0.357-0.809-0.798-0.809s-0.798 0.362-0.798 0.809 0.357 0.809 0.798 0.809c0.441 0 0.798-0.362 0.798-0.809z"></path>
<path fill="#e09870" d="M15.325 24.667c0.009-0.025 0.014-0.047 0.014-0.067s-0.004-0.037-0.014-0.050c0.023-0.015 0.050-0.022 0.080-0.022 0.043 0 0.076 0.017 0.097 0.050 0.011 0.017 0.016 0.036 0.016 0.059s-0.005 0.048-0.016 0.077l-0.235 0.644c-0.041 0.113-0.106 0.169-0.194 0.169-0.039 0-0.072-0.010-0.097-0.031s-0.038-0.046-0.038-0.075c0-0.028 0.007-0.054 0.022-0.078 0.022 0.018 0.043 0.027 0.064 0.027s0.039-0.006 0.054-0.019c0.016-0.012 0.028-0.029 0.036-0.051l0.032-0.095c-0.002 0-0.004 0-0.006 0-0.031 0-0.061-0.012-0.088-0.036s-0.049-0.060-0.063-0.106l-0.117-0.378c-0.009-0.030-0.017-0.052-0.025-0.066s-0.016-0.027-0.029-0.037c0.037-0.036 0.074-0.054 0.113-0.054s0.068 0.011 0.090 0.034c0.021 0.022 0.038 0.058 0.050 0.107l0.113 0.421 0.141-0.422z"></path>
<path fill="#a699d1" d="M17.44 25.027c0-0.447-0.357-0.809-0.798-0.809s-0.798 0.362-0.798 0.809 0.357 0.809 0.798 0.809c0.441 0 0.798-0.362 0.798-0.809z"></path>
<path fill="#e09870" d="M16.942 24.836v0.388c0 0.045 0.013 0.074 0.039 0.088-0.029 0.036-0.067 0.054-0.112 0.054-0.066 0-0.105-0.034-0.117-0.101-0.042 0.067-0.1 0.101-0.174 0.101s-0.131-0.019-0.172-0.057-0.061-0.094-0.061-0.167v-0.314c0-0.043-0.014-0.072-0.042-0.087 0.031-0.036 0.068-0.054 0.111-0.054s0.075 0.012 0.095 0.036 0.029 0.061 0.029 0.112v0.286c0 0.064 0.032 0.096 0.096 0.096 0.055 0 0.093-0.032 0.115-0.095v-0.295c0-0.043-0.014-0.072-0.042-0.087 0.031-0.036 0.068-0.054 0.111-0.054s0.075 0.012 0.095 0.036c0.020 0.024 0.029 0.061 0.029 0.112z"></path>
<path fill="#96866c" d="M17.87 16.934c0 0.069-0.055 0.125-0.123 0.125s-0.123-0.056-0.123-0.125c0-0.069 0.055-0.125 0.123-0.125s0.123 0.056 0.123 0.125z"></path>
<path fill="#96866c" d="M19.406 17.992c0 0.069-0.055 0.125-0.123 0.125s-0.123-0.056-0.123-0.125c0-0.069 0.055-0.125 0.123-0.125s0.123 0.056 0.123 0.125z"></path>
<path fill="#96866c" d="M16.949 17.743c0 0.069-0.055 0.125-0.123 0.125s-0.123-0.056-0.123-0.125 0.055-0.125 0.123-0.125c0.068 0 0.123 0.056 0.123 0.125z"></path>
<path fill="#96866c" d="M10.931 18.864c0 0.069-0.055 0.125-0.123 0.125s-0.123-0.056-0.123-0.125 0.055-0.125 0.123-0.125c0.068 0 0.123 0.056 0.123 0.125z"></path>
<path fill="#96866c" d="M10.133 19.798c0 0.069-0.055 0.125-0.123 0.125s-0.123-0.056-0.123-0.125c0-0.069 0.055-0.125 0.123-0.125s0.123 0.056 0.123 0.125z"></path>
<path fill="#96866c" d="M9.887 18.366c0 0.069-0.055 0.125-0.123 0.125s-0.123-0.056-0.123-0.125 0.055-0.125 0.123-0.125c0.068 0 0.123 0.056 0.123 0.125z"></path>
</svg>
